# xmcd CD database file
#
# Track frame offsets:
#	150
#	7445
#	23879
#	43026
#	59679
#	74613
#	89959
#	106589
#	124037
#	137018
#	156194
#	169243
#	182006
#	198768
#	215105
#	231120
#	248124
#	258432
#	272290
#	287366
#	298447
#	311754
#	324792
#	336147
#
# Disc length: 4626 seconds
#
# Revision: 0
# Processed by: cddbd v1.5.2PL0 Copyright (c) Steve Scherf et al.
# Submitted via: CDex 1.99.1
#
DISCID=71121018
DTITLE=Rolling Stone, the - Danish Radio disc 1 Blues Picks
DYEAR=1970
DGENRE=Blues
TTITLE0=Danish Intro
TTITLE1=Stagger Lee
TTITLE2=It Won't be long now
TTITLE3=Crossroad Blues
TTITLE4=Prat City Blues
TTITLE5=Lousianna Blues
TTITLE6=Key To The Highway
TTITLE7=Shake em' All Down
TTITLE8=Lucillie
TTITLE9=Going Down Slow
TTITLE10=Let It Rock
TTITLE11=Sunnyland Train
TTITLE12=So Many Roadss
TTITLE13=I don't Know Why 
TTITLE14=Tracks Of My Tears
TTITLE15=Feast Of The Mau Mau
TTITLE16=Love In Vain Blues
TTITLE17=ICan't Be Satisfied
TTITLE18=You Gotta Move
TTITLE19=Little Red Rooster
TTITLE20=I've Been Loving You Too Long
TTITLE21=rodigal Son
TTITLE22=Shake Your Hips
TTITLE23=Stop Breakin' Down
EXTD=YEAR: 1970
EXTT0=
EXTT1=
EXTT2=
EXTT3=
EXTT4=
EXTT5=
EXTT6=
EXTT7=
EXTT8=
EXTT9=
EXTT10=
EXTT11=
EXTT12=
EXTT13=
EXTT14=
EXTT15=
EXTT16=
EXTT17=
EXTT18=
EXTT19=
EXTT20=
EXTT21=
EXTT22=
EXTT23=
PLAYORDER=
